<svg width="30" height="30" viewBox="0 0 30 30" fill="none" xmlns="http://www.w3.org/2000/svg">
<path d="M12.5 3.77222C11.9822 3.77222 11.5625 3.35248 11.5625 2.83472C11.5625 2.31695 11.9822 1.89722 12.5 1.89722H16.9194C17.4372 1.89722 17.8569 2.31695 17.8569 2.83472C17.8569 3.35248 17.4372 3.77222 16.9194 3.77222H12.5Z" fill="black"/>
<path d="M8.16291 4.3371C8.52903 4.70321 8.52903 5.29681 8.16291 5.66292L5.03791 8.78792C4.6718 9.15404 4.0782 9.15404 3.71209 8.78792C3.34597 8.42181 3.34597 7.82821 3.71209 7.4621L6.83709 4.3371C7.2032 3.97098 7.7968 3.97098 8.16291 4.3371Z" fill="black"/>
<path d="M15 7.18751C9.99492 7.18751 5.9375 11.2449 5.9375 16.25C5.9375 21.2551 9.99492 25.3125 15 25.3125C20.0051 25.3125 24.0625 21.2551 24.0625 16.25C24.0625 15.7322 24.4822 15.3125 25 15.3125C25.5178 15.3125 25.9375 15.7322 25.9375 16.25C25.9375 22.2906 21.0406 27.1875 15 27.1875C8.95938 27.1875 4.0625 22.2906 4.0625 16.25C4.0625 10.2094 8.95938 5.31251 15 5.31251C15.5178 5.31251 15.9375 5.73224 15.9375 6.25001C15.9375 6.76778 15.5178 7.18751 15 7.18751Z" fill="black"/>
<path d="M21.4853 10.4553C21.7755 10.0821 21.7425 9.55117 21.4082 9.21685C21.0738 8.88253 20.5429 8.84947 20.1697 9.13975L16.2073 12.2216L13.618 14.0711C13.0649 14.4661 12.7367 15.104 12.7367 15.7837C12.7367 16.9461 13.679 17.8883 14.8413 17.8883C15.521 17.8883 16.1589 17.5601 16.5539 17.007L18.4034 14.4177L21.4853 10.4553Z" fill="black"/>
</svg>
